<svg _ngcontent-awi-c20="" version="1.0" xmlns="http://www.w3.org/2000/svg" height="100%" width="100%" preserveAspectRatio="xMidYMid meet" class="svgDynamic" viewBox="0 0 72.46 106.06" fill="#c49b63"><path _ngcontent-awi-c20="" d="M96.2,115.3c1.5-1.9,3.9-4.6,3.8-7.2-.1-3-2.9-6.1-4.9-8C90.4,95.6,82.3,98,78,102c-2,2.1-3.8,4.2-3.4,7.2.3,2.7,2.4,8.3,4.7,9.9,2,1.4,6.9,1.2,9.2,1.1C92.1,120.2,94.1,118,96.2,115.3Zm-5.4-14.6L88.1,104c-.9,1.1-2.1,2.1-3,3.2a9.66,9.66,0,0,0-2.4.1l-5,.3a8.51,8.51,0,0,1,2.1-3.8C82.5,101.3,87,99.7,90.8,100.7Zm-6.3,16.9a8.58,8.58,0,0,1-7-7.5c2.1-.3,6.6-1.3,8.1.3,1.7,1.9,2.4,4.8,3.9,6.9A10.38,10.38,0,0,1,84.5,117.6Zm7.2-1.4h0c-1.7-2.4-2.5-5.5-4.4-7.7.8-.9,1.8-1.7,2.6-2.7,1.1-1.3,2.1-2.7,3.2-4h0c.1.1.2.1.3.2,1.3,1,3.9,4.1,4.1,5.9s-1.3,3.5-2.2,4.7A15.35,15.35,0,0,1,91.7,116.2Z" transform="translate(-63.58 -47.04)"></path><path _ngcontent-awi-c20="" d="M85.8,120.6c-2.3,0-5.1-.2-6.5-1.2-2.5-1.7-4.6-7.5-4.9-10.1-.4-3.2,1.5-5.4,3.5-7.4,4.1-3.8,12.4-6.6,17.4-1.9,2.2,2.1,4.8,5.2,5,8.2.1,2.4-1.9,4.9-3.4,6.7-.2.2-.3.4-.5.6h0c-2.2,2.8-4.2,4.9-7.8,5.1ZM88.7,98a15.84,15.84,0,0,0-10.4,4.3c-1.9,2-3.7,4-3.3,7,.3,2.8,2.5,8.2,4.6,9.8,1.9,1.4,6.7,1.1,9,1,3.5-.2,5.3-2.2,7.5-4.9h0c.2-.2.3-.4.5-.6,1.5-1.8,3.4-4.2,3.3-6.4s-1.8-4.9-4.8-7.8A9.31,9.31,0,0,0,88.7,98Zm-2.2,20a16.46,16.46,0,0,1-2.1-.2h0a8.91,8.91,0,0,1-7.2-7.7v-.2h.2a5.16,5.16,0,0,0,1.1-.2c2.5-.4,5.9-.9,7.2.6a13.84,13.84,0,0,1,2.3,3.9,28.5,28.5,0,0,0,1.6,3l.2.3-.3.1A9.89,9.89,0,0,1,86.5,118Zm-2-.6a10,10,0,0,0,4.6-.2c-.6-.9-1-1.9-1.5-2.8a14,14,0,0,0-2.2-3.8c-1.2-1.2-4.5-.7-6.8-.4-.3,0-.6.1-.9.1a8.62,8.62,0,0,0,6.8,7.1Zm7.1-.9-.2-.3a27.37,27.37,0,0,1-1.9-3.4,14.08,14.08,0,0,0-2.5-4.1l-.1-.2.2-.2c.3-.4.7-.7,1-1.1l1.6-1.6c.5-.7,1.1-1.3,1.6-2s1-1.3,1.6-2l.1-.2.3.2c.1,0,.1.1.2.1,1.3,1,4,4.2,4.2,6.1.2,1.6-1.1,3.3-2,4.5l-.3.4a14.15,14.15,0,0,1-3.6,3.7Zm-4-8a21,21,0,0,1,2.4,4.1,16.54,16.54,0,0,0,1.8,3.2,13.42,13.42,0,0,0,3.3-3.4l.3-.4c.9-1.2,2-2.8,1.9-4.2-.2-1.7-2.7-4.8-4-5.7l-.1-.1-1.5,1.8c-.5.7-1.1,1.4-1.6,2s-1,1.1-1.6,1.7A9,9,0,0,1,87.6,108.5Zm-10.3-.6.1-.3a8.44,8.44,0,0,1,2.2-3.9c2.5-2.3,7.1-4.3,11.2-3.2l.4.1-.2.3c-.3.4-.7.9-1,1.3-.5.7-1.1,1.4-1.6,2s-1,1.1-1.6,1.7a19.2,19.2,0,0,0-1.4,1.5l-.1.1h-.1a10.82,10.82,0,0,0-1.8,0h-.6c-.6,0-1.2.1-1.7.1-1.1.1-2.2.1-3.3.2Zm11.1-7.2a12.57,12.57,0,0,0-8.4,3.4,8.16,8.16,0,0,0-2,3.3c1-.1,2-.1,2.9-.2.6,0,1.1-.1,1.7-.1h.6a5.44,5.44,0,0,1,1.8,0,9.27,9.27,0,0,1,1.4-1.4c.5-.5,1.1-1.1,1.5-1.6.6-.7,1.1-1.3,1.6-2,.3-.3.5-.7.8-1A3.13,3.13,0,0,0,88.4,100.7Z" transform="translate(-63.58 -47.04)"></path><path _ngcontent-awi-c20="" d="M110.1,126.6c-4.6-2.2-12.8-2.6-16.2,2.1-1.7,2.3-3.6,6.7-3.1,9.6s3.5,4.7,5.8,6.3c2.8,1.9,5.4,3.4,8.8,2.5,2.3-.6,6.9-1.8,8.4-3.7,1.8-2.3,2.1-8.3,1.6-11.1S112.6,127.9,110.1,126.6Zm-1.3,2.1a7.23,7.23,0,0,1,3,3c-1.5.3-3,.7-4.4,1.1a19.73,19.73,0,0,0-2.6.7c-1.2-.8-2.6-1.3-3.8-2.1L97.4,129C100.7,126.9,105.7,127.2,108.8,128.7Zm-15.6,9.2c-.4-1.8,1.1-5.6,2.3-7.2a.1.1,0,0,0,.1.1c1.4.9,2.8,1.9,4.2,2.8,1.1.7,2.3,1.2,3.4,1.9-1.1,2.6-1,5.8-1.9,8.5v.1a11.71,11.71,0,0,1-3.4-1.6C96.6,141.6,93.6,139.8,93.2,137.9Zm16.8,4.9a10.47,10.47,0,0,1-6.3,1.8c.8-2.5.6-5.4,1.7-7.8.6-1.3,2-1.3,3.3-1.6s2.8-.7,4.2-1C113.6,137.2,112.9,140.8,110,142.8Z" transform="translate(-63.58 -47.04)"></path><path _ngcontent-awi-c20="" d="M103.4,147.7c-2.5,0-4.6-1.3-6.9-2.8l-.5-.4c-2.2-1.5-4.9-3.3-5.4-6.1-.5-3.1,1.5-7.6,3.1-9.8,3.5-4.9,11.8-4.4,16.5-2.2h0c2.4,1.3,4.8,2.8,5.5,5.9.5,2.6.3,8.8-1.6,11.3-1.5,1.9-5.6,3-8,3.7l-.5.1A10.33,10.33,0,0,1,103.4,147.7Zm-.4-22.5c-4.1,0-7.5,1.7-8.9,3.6-1.5,2.2-3.5,6.5-3,9.5.4,2.6,2.9,4.3,5.2,5.8l.5.4c2.8,1.9,5.3,3.4,8.6,2.5l.5-.1c2.4-.6,6.4-1.7,7.8-3.5,1.7-2.1,2.1-8.1,1.5-10.9s-2.9-4.3-5.2-5.5A15.16,15.16,0,0,0,103,125.2Zm1.2,19.6h-.9l.1-.3a20.54,20.54,0,0,0,.7-3.4,16.54,16.54,0,0,1,1-4.4c.5-1.2,1.6-1.4,2.7-1.6a1.85,1.85,0,0,0,.7-.2l1.1-.3c1-.3,2.1-.5,3.1-.7h.2l.1.2c.9,3.6-.2,7.1-3,9h0A10.64,10.64,0,0,1,104.2,144.8Zm-.2-.5a9.87,9.87,0,0,0,5.8-1.7h0a7.55,7.55,0,0,0,2.8-8.2,22.91,22.91,0,0,0-2.8.7c-.4.1-.8.2-1.1.3s-.5.1-.7.2a3.07,3.07,0,0,0-2.4,1.3,15.15,15.15,0,0,0-1,4.2A19.85,19.85,0,0,1,104,144.3Zm-2.6.1-.3-.1a13.26,13.26,0,0,1-3.4-1.6l-.4-.3c-1.5-1-3.9-2.6-4.3-4.5h0c-.4-1.9,1.1-5.8,2.3-7.4l.2-.2.3.2c.7.4,1.4.9,2.1,1.4s1.4,1,2.1,1.4a12.81,12.81,0,0,0,2,1.1c.5.2.9.5,1.3.7l.2.1-.1.2a22.1,22.1,0,0,0-1.1,4.6,24.5,24.5,0,0,1-.8,3.9v.1Zm-7.9-6.6c.3,1.6,2.7,3.2,4.1,4.1l.4.3a14.84,14.84,0,0,0,3.1,1.5,24.47,24.47,0,0,0,.8-3.7,22.58,22.58,0,0,1,1-4.5,10.91,10.91,0,0,1-1.1-.6,22.47,22.47,0,0,1-2.1-1.2c-.7-.5-1.4-1-2.1-1.4s-1.3-.9-1.9-1.3c-1.2,1.7-2.6,5.1-2.2,6.8Zm11.3-4-.1-.1c-.6-.3-1.2-.7-1.7-1-.7-.4-1.4-.7-2-1.1s-1.5-1-2.2-1.5a7.1,7.1,0,0,1-1.4-1l-.3-.2.3-.2c3.5-2.2,8.6-1.8,11.7-.3h0a7.14,7.14,0,0,1,3.1,3.1l.2.3-.3.1c-1,.2-2,.5-3,.7a7.37,7.37,0,0,0-1.4.4c-.2.1-.5.1-.7.2a10.55,10.55,0,0,0-1.9.5ZM97.9,129c.4.2.7.5,1.1.7.7.5,1.5,1,2.2,1.5a12.81,12.81,0,0,0,2,1.1c.6.3,1.1.6,1.7.9a12.09,12.09,0,0,1,1.8-.5,1.85,1.85,0,0,0,.7-.2l1.4-.3c.9-.2,1.8-.5,2.7-.7a7,7,0,0,0-2.8-2.6C105.9,127.6,101.2,127.2,97.9,129Z" transform="translate(-63.58 -47.04)"></path><path _ngcontent-awi-c20="" d="M107.2,106.4a4.58,4.58,0,0,0,4.9-3.6c.5-2.4-.9-3.9-3-4.8a1.27,1.27,0,0,0-.6-.1c-2.3-.1-4.8.9-5.3,3.4S104.9,106.1,107.2,106.4Zm-1.6-4.7c.4-1.2,1.8-1.3,2.8-1.2.9.4,1.4.9,1.2,1.9a1.88,1.88,0,0,1-2.1,1.6C106.5,103.8,105.3,102.8,105.6,101.7Z" transform="translate(-63.58 -47.04)"></path><path _ngcontent-awi-c20="" d="M107.8,106.7h-.6a5.33,5.33,0,0,1-3.5-2.2,4,4,0,0,1-.7-3.1c.6-2.7,3.2-3.7,5.5-3.6a1.48,1.48,0,0,1,.7.1c2.5,1,3.6,2.8,3.1,5A4.68,4.68,0,0,1,107.8,106.7Zm-.6-.5a4.26,4.26,0,0,0,4.6-3.4c.5-2.6-1.3-3.9-2.8-4.5a.45.45,0,0,0-.5,0h0c-2.1-.1-4.5.8-5,3.2a3.33,3.33,0,0,0,.6,2.7,4.61,4.61,0,0,0,3.1,2Zm.6-2h-.3a3,3,0,0,1-1.9-1.2,1.44,1.44,0,0,1-.2-1.4h0c.2-.7,1-1.6,3.1-1.4h.1a1.79,1.79,0,0,1,1.3,2.2A2.13,2.13,0,0,1,107.8,104.2Zm-1.9-2.4a1.16,1.16,0,0,0,.2,1,2.52,2.52,0,0,0,1.5,1,1.61,1.61,0,0,0,1.8-1.4c.1-.8-.1-1.2-1-1.6-1.4-.2-2.3.2-2.5,1Z" transform="translate(-63.58 -47.04)"></path><path _ngcontent-awi-c20="" d="M115.8,111.5a1.27,1.27,0,0,0-.6-.1c-2.3-.1-4.8.9-5.3,3.4s1.7,4.7,4,5a4.58,4.58,0,0,0,4.9-3.6C119.2,113.9,117.9,112.3,115.8,111.5Zm.6,4.3a1.88,1.88,0,0,1-2.1,1.6c-1-.1-2.2-1.2-1.9-2.3s1.8-1.3,2.8-1.2C116,114.3,116.6,114.8,116.4,115.8Z" transform="translate(-63.58 -47.04)"></path><path _ngcontent-awi-c20="" d="M114.5,120.2h-.6a5.33,5.33,0,0,1-3.5-2.2,4,4,0,0,1-.7-3.1c.6-2.7,3.2-3.7,5.5-3.6a1.48,1.48,0,0,1,.7.1h0c2.5,1,3.6,2.8,3.1,5A4.68,4.68,0,0,1,114.5,120.2Zm.3-8.5a4.43,4.43,0,0,0-4.6,3.2,3.33,3.33,0,0,0,.6,2.7,4.81,4.81,0,0,0,3.2,2,4.26,4.26,0,0,0,4.6-3.4c.5-2.6-1.3-3.9-2.8-4.5h0a.45.45,0,0,0-.5,0h-.5Zm-.3,6h-.3a3,3,0,0,1-1.9-1.2,1.44,1.44,0,0,1-.2-1.4c.2-.7,1-1.6,3.1-1.4h.1a1.79,1.79,0,0,1,1.3,2.2h0A2.23,2.23,0,0,1,114.5,117.7Zm.2-3.5c-1.2,0-1.9.4-2.1,1.1a1.16,1.16,0,0,0,.2,1,2.52,2.52,0,0,0,1.5,1,1.67,1.67,0,0,0,1.8-1.4c.1-.8-.2-1.2-1-1.6A.6.6,0,0,0,114.7,114.2Z" transform="translate(-63.58 -47.04)"></path><path _ngcontent-awi-c20="" d="M83.8,129.5a1.27,1.27,0,0,0-.6-.1c-2.3-.1-4.8.9-5.3,3.4s1.7,4.7,4,5a4.58,4.58,0,0,0,4.9-3.6C87.2,131.9,85.9,130.4,83.8,129.5Zm.6,4.3a1.88,1.88,0,0,1-2.1,1.6c-1-.1-2.2-1.2-1.9-2.3s1.8-1.3,2.8-1.2C84,132.3,84.6,132.8,84.4,133.8Z" transform="translate(-63.58 -47.04)"></path><path _ngcontent-awi-c20="" d="M82.5,138.2h-.6a5.33,5.33,0,0,1-3.5-2.2,4,4,0,0,1-.7-3.1c.6-2.7,3.2-3.7,5.5-3.6a1.48,1.48,0,0,1,.7.1h0c2.5,1,3.6,2.8,3.1,5A4.6,4.6,0,0,1,82.5,138.2Zm.3-8.5a4.43,4.43,0,0,0-4.6,3.2,3.33,3.33,0,0,0,.6,2.7,4.81,4.81,0,0,0,3.2,2,4.26,4.26,0,0,0,4.6-3.4,3.94,3.94,0,0,0-2.8-4.5h0a.45.45,0,0,0-.5,0h-.5Zm-.3,6h-.3a3,3,0,0,1-1.9-1.2,1.44,1.44,0,0,1-.2-1.4c.2-.7,1-1.6,3.1-1.4h.1a1.79,1.79,0,0,1,1.3,2.2A2.13,2.13,0,0,1,82.5,135.7Zm.2-3.5c-1.2,0-1.9.4-2.1,1.1a1.16,1.16,0,0,0,.2,1,2.52,2.52,0,0,0,1.5,1,1.67,1.67,0,0,0,1.8-1.4h0c.1-.8-.1-1.2-1-1.6A.6.6,0,0,0,82.7,132.2Z" transform="translate(-63.58 -47.04)"></path><path _ngcontent-awi-c20="" d="M129.8,67.6a1.37,1.37,0,0,0,1.8,0c1.5-1.7,3-3.5,4.3-5.3a1.37,1.37,0,0,0-.2-1.5c-4-4.7-15.9-21.7-21.1-8.9-1.8,4.3-2.5,9.4-3.7,13.9-.5,2-1.1,4.1-1.6,6.1-14.7,0-29.4-.4-44.1-.4a.75.75,0,0,0-.5.1,1,1,0,0,0-.7,1.1c1.7,18.5,3.8,37,6.8,55.3.8,4.8,1.6,9.6,2.5,14.4.5,2.5.4,6.8,2.2,8.8,1.4,1.5,3.8,1.2,5.6,1.3q7.35.3,14.7.3c4.3,0,8.7-.1,13-.1,2.4,0,6.5.5,8.7-.6,4.8-2.5,4.2-12,5-16.6q4.95-31.05,9.8-62.1a1.28,1.28,0,0,0-1.2-1.6c-4.1.1-8.2.2-12.3.2,1-4,2.2-8,3.4-11.9C124.8,62.6,127.3,65.1,129.8,67.6ZM107.2,90.9c1.2-5.5,2.6-11,4-16.5h4.4c-1.4,5.6-2.7,11.1-4,16.7A33.14,33.14,0,0,1,107.2,90.9Zm-2.5-.2c-3.3-.4-6.5-.9-9.8-1.5-9.3-1.7-17.7-1.9-26.8.6C67.6,84.6,67,79.3,66.6,74c14,0,28.1.4,42.1.4C107.3,79.8,105.9,85.2,104.7,90.7ZM122,122.8c-.6,4-1.3,8-1.9,11.9-.6,3.7-.6,8.5-1.9,11.9-1.7,4.3-5.5,3.5-9.4,3.5s-7.9.1-11.9.1c-3.7,0-7.5,0-11.2-.1-1.7,0-4.1.3-5.8-.2-3.4-1.1-3.1-2.2-3.6-4.9-1.5-7.7-2.8-15.5-4-23.2-1.5-9.8-2.7-19.7-3.8-29.5,12.3-3.6,22.7-.8,34.9.9,8,1.1,16.2.7,23.7-2.3C125.3,101.5,123.7,112.1,122,122.8Zm7.7-48.6c-.7,4.6-1.5,9.3-2.2,13.9a37.18,37.18,0,0,1-13.3,3c1.3-5.6,2.6-11.1,4-16.7C122,74.4,125.8,74.3,129.7,74.2ZM116.3,72h-4.4c.4-1.6.8-3.1,1.2-4.7,1.2-4.5,1.7-10.9,4-14.9,3.1-5.3,6.8-.8,9.5,2.1,1.4,1.5,6.6,5.9,6.5,7.6-.1.9-2,2.1-2.5,3-.1-.1-.1-.2-.2-.3-1.8-2.9-5.4-5.5-7.8-7.8a1.29,1.29,0,0,0-2.1.5C118.9,62.2,117.5,67.1,116.3,72Z" transform="translate(-63.58 -47.04)"></path><path _ngcontent-awi-c20="" d="M94.9,153c-4.5,0-8.9-.1-13.9-.3H80c-1.7,0-3.6,0-4.8-1.3-1.4-1.5-1.7-4.3-2-6.7-.1-.8-.2-1.6-.3-2.2-.9-4.6-1.7-9.3-2.5-14.4-2.7-16.5-4.9-34.6-6.8-55.3a1.24,1.24,0,0,1,.9-1.4,1.27,1.27,0,0,1,.6-.1c7.5,0,15.2.1,22.5.2,7,.1,14.2.2,21.3.2.5-2,1-4,1.5-5.9.4-1.4.7-3,1-4.4a57.85,57.85,0,0,1,2.7-9.5q1.8-4.35,4.8-4.8c5.1-.8,11.5,7.1,15.2,11.8q.9,1.05,1.5,1.8a1.51,1.51,0,0,1,.2,1.8c-1.2,1.7-2.6,3.3-3.9,4.8l-.4.5a1.16,1.16,0,0,1-1,.4,1.25,1.25,0,0,1-1.1-.4h0c-2.5-2.5-4.9-5-7.3-7.3-1.1,3.5-2.1,7.1-3.2,11.2,4.6,0,8.4-.1,12-.2h.1a1.23,1.23,0,0,1,1,.5,1.79,1.79,0,0,1,.4,1.4l-9.8,62.1a32.91,32.91,0,0,0-.4,3.6c-.4,5-.9,11.2-4.7,13.2-1.8.9-4.6.8-6.9.7a10.89,10.89,0,0,1-1.9-.1c-1.7,0-3.4,0-5.1.1-2.6,0-5.2.1-7.8.1A2.77,2.77,0,0,0,94.9,153Zm-14.7-.8H81c5.2.2,10,.3,14.7.3,2.6,0,5.2,0,7.8-.1,1.7,0,3.4,0,5.1-.1a14.8,14.8,0,0,1,2,.1c2.2.1,5,.2,6.7-.7,3.6-1.9,4.1-7.9,4.5-12.8a35,35,0,0,1,.4-3.7L132,73.1a1.07,1.07,0,0,0-1-1.3c-3.6.1-7.5.2-12.3.2h-.3l.1-.3c1.1-4.3,2.2-8.2,3.4-11.9l.1-.4.3.3,7.6,7.6h0a1.14,1.14,0,0,0,.8.3.6.6,0,0,0,.6-.3l.4-.5c1.3-1.5,2.7-3.1,3.9-4.8.3-.3.1-.9-.2-1.2q-.6-.75-1.5-1.8c-3.5-4.3-10-12.3-14.8-11.6-1.8.3-3.3,1.8-4.4,4.5a74.07,74.07,0,0,0-2.7,9.5c-.3,1.5-.7,3-1,4.4-.5,2-1.1,4.1-1.6,6.1v.2h-.2c-7.2,0-14.5-.1-21.5-.2-7.4-.1-15-.2-22.5-.2-.2,0-.3,0-.4.1a.93.93,0,0,0-.6.9c1.9,20.7,4.1,38.8,6.8,55.3.8,5.1,1.6,9.8,2.5,14.4.1.6.2,1.4.3,2.2.3,2.3.6,5,1.9,6.4,1,1.2,2.8,1.2,4.5,1.2ZM94,150.5c-3.1,0-5.8,0-8.4-.1H83.9a11.78,11.78,0,0,1-4.2-.3c-3.1-1-3.3-2.1-3.6-4.1-.1-.3-.1-.7-.2-1-1.4-7.3-2.7-14.9-4-23.2-1.4-9-2.6-18.6-3.8-29.5v-.2l.2-.1c10.2-3,19.2-1.5,28.8,0l6.2.9a48,48,0,0,0,23.6-2.2l.4-.2-7,44.2c-.2,1.2-.3,2.5-.4,3.8a33.3,33.3,0,0,1-1.5,8.1c-1.5,3.8-4.6,3.8-7.9,3.7h-1.7c-1.7,0-3.4,0-5.1.1-2.3,0-4.5.1-6.8.1Zm-8.7-.6h.4c3.3.1,6.8.1,11.2.1,2.3,0,4.5,0,6.8-.1,1.7,0,3.4,0,5.1-.1h1.7c3.3.1,6.1.2,7.5-3.4a28.46,28.46,0,0,0,1.4-8c.1-1.4.3-2.7.4-3.9l1.9-11.9h0l5-31.4c-6.9,2.6-14.8,3.3-23.4,2.1l-6.2-.9c-9.5-1.5-18.4-2.9-28.4,0,1.2,10.8,2.5,20.4,3.8,29.3,1.3,8.3,2.6,15.9,4,23.2.1.4.1.7.2,1.1.3,2,.5,2.8,3.3,3.7a10.46,10.46,0,0,0,4,.2Zm26.5-58.5h-.2c-1.4,0-2.9-.1-4.5-.2h-.3l.1-.3c1.1-4.9,2.3-10.1,4-16.5v-.2h4.9l-.1.3c-.9,3.5-1.7,7.1-2.5,10.6-.5,2-1,4.1-1.5,6.1Zm-4.3-.7c1.3.1,2.7.2,3.9.2.5-2,.9-4,1.4-5.9.8-3.4,1.6-6.8,2.5-10.3h-3.9C109.8,80.9,108.6,86,107.5,90.7Zm6.4.7.1-.4c.4-1.8.8-3.5,1.2-5.3.9-3.7,1.8-7.6,2.7-11.4v-.2h.2c4.1,0,7.9-.1,11.5-.2h.3l-2.3,14.3-.1.1a36,36,0,0,1-13.3,3Zm4.5-16.7c-.9,3.7-1.8,7.5-2.7,11.2-.4,1.7-.8,3.3-1.2,5A34.77,34.77,0,0,0,127.2,88l2.1-13.5C125.9,74.6,122.3,74.6,118.4,74.7ZM104.9,91h-.2c-3.3-.4-6.7-1-9.8-1.5-10.4-1.9-18.4-1.7-26.7.6l-.3.1v-.3c-.6-5.7-1.1-10.9-1.6-15.8v-.3h.3c7.1,0,14.2.1,21.2.2,6.8.1,13.9.2,20.9.2h.3l-.1.3C107.2,81,106,86,105,90.7ZM82,87.6a69.71,69.71,0,0,1,13,1.3c3.1.6,6.3,1.1,9.5,1.5,1-4.6,2.2-9.5,3.8-15.7-6.9,0-13.8-.1-20.6-.2s-13.9-.2-20.9-.2c.4,4.7,1,9.7,1.5,15.2A49.24,49.24,0,0,1,82,87.6Zm29.5-15.4.1-.3c.4-1.6.8-3.1,1.2-4.7.4-1.4.6-2.9,1-4.5.7-3.6,1.4-7.6,3.1-10.5.9-1.6,2-2.4,3.2-2.5,2.2-.2,4.5,2.1,6.2,4l.5.5,1.3,1.3c2.8,2.7,5.3,5.2,5.2,6.5a4,4,0,0,1-1.5,1.9,6,6,0,0,0-1.1,1.2l-.2.4-.3-.5c0-.1-.1-.1-.1-.2a24.92,24.92,0,0,0-5.3-5.5,28.4,28.4,0,0,1-2.5-2.3,1,1,0,0,0-1.7.4c-1.4,4.3-2.8,8.9-4.2,14.6v.2h-4.9Zm8.9-22h-.3c-1,.1-1.9.9-2.8,2.3-1.6,2.8-2.4,6.6-3.1,10.3-.3,1.6-.6,3.2-1,4.6s-.8,2.9-1.1,4.4H116c1.4-5.6,2.8-10.2,4.2-14.4a1.57,1.57,0,0,1,1.1-1,1.49,1.49,0,0,1,1.4.4c.7.7,1.6,1.5,2.5,2.3a31.47,31.47,0,0,1,5.4,5.6,7.64,7.64,0,0,1,.9-.9c.6-.5,1.3-1.2,1.3-1.6.1-1.3-3.3-4.4-5.1-6.1a15.62,15.62,0,0,1-1.3-1.3l-.5-.6C124.3,52.3,122.3,50.2,120.4,50.2Z" transform="translate(-63.58 -47.04)"></path><path _ngcontent-awi-c20="" d="M69.4,82.1l.9,4.5c.3,1.6,2.7.9,2.4-.7s-.6-3.4-1-5.1c-.1-.3-.4-.9-.3-1.1s-.1-.1-.1-.2a1.7,1.7,0,0,0,.7-.1,28.1,28.1,0,0,1,2.9.1c1.6.2,1.6-2.3,0-2.5s-5.5-.8-5.9,1.7A7.6,7.6,0,0,0,69.4,82.1Z" transform="translate(-63.58 -47.04)"></path><path _ngcontent-awi-c20="" d="M71.3,87.8a.9.9,0,0,1-.5-.1,1.37,1.37,0,0,1-.8-1v-.2c-.2-1.4-.5-2.9-.8-4.4h0c-.1-.3-.1-.5-.2-.8a5.39,5.39,0,0,1-.3-2.5c.5-2.6,4.2-2.1,6-1.9h.2a1.66,1.66,0,0,1,1.3,1,1.79,1.79,0,0,1-.1,1.6,1.35,1.35,0,0,1-1.2.5,13.78,13.78,0,0,0-2.8-.1h-.3a1.42,1.42,0,0,0,.2.6.49.49,0,0,1,.1.3c.4,1.7.7,3.4,1,5v.1a1.65,1.65,0,0,1-.5,1.5A3.82,3.82,0,0,1,71.3,87.8Zm1-10.6c-1.5,0-2.9.3-3.2,1.7a6.34,6.34,0,0,0,.3,2.3,3.09,3.09,0,0,1,.2.8h0c.3,1.5.6,3,.8,4.4v.2c.1.3.2.5.5.6A1.47,1.47,0,0,0,72,87a1,1,0,0,0,.4-1v-.1c-.3-1.6-.6-3.4-1-5,0-.1-.1-.2-.1-.3a3.09,3.09,0,0,1-.2-.8l-.4-.5,1.2-.1c.9,0,1.8,0,3,.1a.78.78,0,0,0,.7-.3,1.38,1.38,0,0,0,.1-1.1,1.15,1.15,0,0,0-.9-.7h-.2A17.63,17.63,0,0,1,72.3,77.2Z" transform="translate(-63.58 -47.04)"></path><path _ngcontent-awi-c20="" d="M78.6,80a1.25,1.25,0,0,0,0-2.5A1.25,1.25,0,0,0,78.6,80Z" transform="translate(-63.58 -47.04)"></path><path _ngcontent-awi-c20="" d="M78.6,80.2a1.34,1.34,0,0,1-1.4-1.5,1.45,1.45,0,0,1,1.4-1.5A1.39,1.39,0,0,1,80,78.7,1.34,1.34,0,0,1,78.6,80.2Zm0-2.5a.91.91,0,0,0-.7.3.84.84,0,0,0-.2.7.92.92,0,0,0,.9,1c.7,0,.9-.5.9-1S79.3,77.7,78.6,77.7Z" transform="translate(-63.58 -47.04)"></path><!----><!----><!----><!----></svg>