<?xml version="1.0" standalone="no"?>
<!DOCTYPE svg PUBLIC "-//W3C//DTD SVG 20010904//EN"
 "http://www.w3.org/TR/2001/REC-SVG-20010904/DTD/svg10.dtd">
<svg version="1.0" xmlns="http://www.w3.org/2000/svg"
 width="512.000000pt" height="512.000000pt" viewBox="0 0 512.000000 512.000000"
 preserveAspectRatio="xMidYMid meet">

<g transform="translate(0.000000,512.000000) scale(0.100000,-0.100000)"
fill="#c49b63" stroke="none">
<path d="M3906 5102 c-26 -15 -63 -96 -291 -632 l-261 -615 -447 -3 -446 -2
-6 37 c-38 236 -121 422 -259 582 -152 175 -333 287 -576 354 -63 17 -104 21
-255 21 -164 0 -189 -2 -278 -27 -601 -162 -950 -774 -781 -1365 86 -302 305
-560 587 -692 243 -114 499 -136 771 -65 54 14 101 23 104 20 3 -3 205 -238
449 -523 l442 -517 1 -561 0 -561 -290 -193 c-160 -106 -295 -201 -300 -211
-13 -23 -13 -75 0 -100 27 -49 25 -49 694 -49 l626 0 32 29 c41 37 46 96 9
134 -12 14 -146 107 -297 208 l-274 182 0 558 0 557 868 1014 c478 558 872
1022 875 1032 16 41 -5 105 -40 122 -10 5 -237 11 -505 14 l-487 5 226 533
227 532 383 0 383 0 32 29 c27 24 33 36 33 71 0 35 -6 47 -33 71 l-32 29 -428
0 c-392 0 -429 -2 -456 -18z m-2636 -784 l0 -333 -235 235 -235 235 22 17
c102 79 264 147 408 171 14 2 28 5 33 6 4 0 7 -149 7 -331z m380 286 c75 -24
219 -99 253 -132 17 -17 8 -28 -207 -248 l-225 -229 0 326 -1 326 52 -9 c29
-5 86 -20 128 -34z m-755 -524 l230 -230 -328 0 c-305 0 -327 1 -327 18 0 39
42 186 70 249 32 70 107 193 119 193 3 0 110 -103 236 -230z m1262 93 c40 -74
84 -205 96 -285 l6 -38 -327 0 -327 0 230 230 230 231 25 -30 c14 -17 44 -65
67 -108z m-1158 -558 c17 -20 31 -39 31 -43 0 -4 -84 -90 -186 -192 l-185
-185 -25 30 c-63 77 -142 266 -158 378 l-7 47 249 0 250 0 31 -35z m2261 28
c0 -4 -16 -47 -36 -95 l-37 -88 -424 0 c-452 0 -467 -1 -493 -49 -13 -25 -13
-77 0 -101 23 -43 38 -45 442 -50 l387 -5 -151 -355 c-136 -320 -150 -358
-142 -389 18 -70 110 -100 159 -50 14 14 92 183 188 409 l164 385 321 3 322 2
-593 -692 c-326 -381 -598 -693 -604 -693 -11 0 -1523 1758 -1523 1770 0 3
455 5 1010 5 556 0 1010 -3 1010 -7z m1003 -27 c-15 -18 -50 -61 -78 -94 l-50
-61 -362 0 c-200 -1 -363 2 -363 6 0 4 16 47 36 95 l37 88 404 0 404 0 -28
-34z m-3045 -257 l42 -52 0 -224 0 -225 -42 7 c-122 21 -311 99 -383 159 l-30
25 180 180 c99 100 182 181 186 181 3 0 24 -23 47 -51z m330 -385 c34 -40 62
-76 62 -81 0 -8 -105 -33 -139 -33 -7 0 -11 34 -11 107 0 89 2 105 13 93 7 -8
41 -47 75 -86z m1344 -2681 l131 -88 -132 -3 c-72 -1 -190 -1 -262 0 l-132 3
129 87 c71 48 130 87 132 87 1 1 61 -38 134 -86z"/>
<path d="M1908 3444 c-34 -18 -48 -43 -48 -84 0 -42 15 -67 50 -85 43 -22 76
-18 112 14 27 24 33 36 33 71 0 35 -6 47 -33 71 -36 32 -72 36 -114 13z"/>
</g>
</svg>
