<svg _ngcontent-awi-c20="" version="1.0" xmlns="http://www.w3.org/2000/svg" height="100%" width="100%" preserveAspectRatio="xMidYMid meet" class="svgDynamic" viewBox="0 0 92.38 92.8" fill="#c49b63"><path _ngcontent-awi-c20="" d="M74.4,146a3.94,3.94,0,0,1-2-.5c-2.9-1.4-2.8-4.3-2.8-6v-5.7c0-3.6,0-7.2.1-10.9v-.4h-.1a16.34,16.34,0,0,1-6.5-.5,13.46,13.46,0,0,1-8.9-12.7c-.1-11.6-.1-26.8,0-42.1C54.3,59.7,59.7,54,66.9,54h65.5c8.3,0,13.5,5.8,13.5,15h0v38.6c0,9.3-5.2,15-13.4,15H99.9a3.07,3.07,0,0,0-2.5,1.1c-5.2,5.6-10.5,11.2-15.6,16.6l-2.8,3-.4.4C77.7,144.5,76.3,146,74.4,146Zm-4.5-27.7a4.12,4.12,0,0,1,2.9,1,5.2,5.2,0,0,1,1.2,3.9c-.1,3.6-.1,7.2-.1,10.7v5.7c0,1.7.1,2,.4,2.1s.7-.6,1-.9l.5-.5,2.8-3c5.1-5.4,10.4-11,15.6-16.6a7.17,7.17,0,0,1,5.6-2.5h.1c10,.1,20.1,0,30,0h2.6c8,0,9.2-6.8,9.2-10.8V68.8h0c0-4-1.2-10.7-9.2-10.7H67c-4.7,0-8.3,3.9-8.4,8.9-.1,15.3-.1,30.5,0,42a9.12,9.12,0,0,0,6,8.7,12.33,12.33,0,0,0,4.7.3C69.4,118.3,69.7,118.3,69.9,118.3Z" transform="translate(-53.93 -53.6)"></path><path _ngcontent-awi-c20="" d="M74.4,146.4a5.37,5.37,0,0,1-2.1-.5c-3.1-1.5-3.1-4.7-3-6.4v-5.6c0-3.6,0-7.2.1-10.9h0a15.37,15.37,0,0,1-6.3-.6A13.56,13.56,0,0,1,54,109.3c-.1-11.6-.1-26.8,0-42.1.1-7.7,5.7-13.5,13-13.6h65.5c8.5,0,13.8,5.9,13.8,15.4v38.6c0,9.5-5.3,15.4-13.8,15.4H99.9a2.57,2.57,0,0,0-2.2,1c-5.2,5.6-10.5,11.2-15.6,16.6l-2.8,3-.4.4C78,144.8,76.5,146.4,74.4,146.4ZM70,122.2v.9c-.1,3.6-.1,7.3-.1,10.9v5.7c0,1.8,0,4.4,2.6,5.7a3.92,3.92,0,0,0,1.8.4c1.8,0,3.1-1.5,3.8-2.2l.4-.4,2.8-3c5.1-5.4,10.4-11,15.6-16.6a3.21,3.21,0,0,1,2.8-1.2c9.6.1,19.4,0,28.8,0h3.8c8,0,13-5.6,13.1-14.7V69.1c0-9-5-14.6-13.1-14.6H66.8c-6.9,0-12.2,5.5-12.3,12.8-.2,15.3-.1,30.5,0,42.1a12.9,12.9,0,0,0,8.6,12.4,13.74,13.74,0,0,0,6.3.5Zm4.2,19.9h0c-.7-.3-.7-.8-.7-2.5v-5.7c0-3.5,0-7.1.1-10.7,0-1.2,0-2.6-1.1-3.6a3.57,3.57,0,0,0-2.6-.9h-.7a13.39,13.39,0,0,1-4.9-.3,9.32,9.32,0,0,1-6.2-9c-.1-11.6-.1-26.8,0-42,.1-5.3,3.8-9.3,8.8-9.3h65.5c8.3,0,9.6,7,9.6,11.1h0v38.6c0,4.2-1.2,11.1-9.5,11.1H99.9a6.68,6.68,0,0,0-5.4,2.4c-5.1,5.5-10.4,11.1-15.5,16.5l-2.9,3-.5.5c-.6.7-.9,1-1.2,1Zm-4.3-24.2A4.5,4.5,0,0,1,73,119a5.46,5.46,0,0,1,1.3,4.1c-.1,3.6-.1,7.2-.1,10.7v5.7a5.39,5.39,0,0,0,.1,1.7,4.62,4.62,0,0,1,.7-.7c.2-.2.3-.4.5-.5l2.8-3c5.2-5.4,10.5-11,15.6-16.5a7.4,7.4,0,0,1,5.9-2.6c9.7.1,19.4,0,28.8,0h3.8c7.6,0,8.8-6.5,8.8-10.4V68.9h0c0-3.9-1.2-10.3-8.8-10.3H66.9c-4.5,0-8,3.7-8,8.6-.1,15.2-.1,30.5,0,42a8.61,8.61,0,0,0,5.7,8.3,11.69,11.69,0,0,0,4.6.3A1.48,1.48,0,0,0,69.9,117.9Z" transform="translate(-53.93 -53.6)"></path><path _ngcontent-awi-c20="" d="M114.9,89.8H69.4a.68.68,0,0,1-.7-.7V86.5a.68.68,0,0,1,.7-.7h45.5a.68.68,0,0,1,.7.7v2.6a.68.68,0,0,1-.7.7" transform="translate(-53.93 -53.6)"></path><path _ngcontent-awi-c20="" d="M114.9,90.2H69.4a1.11,1.11,0,0,1-1.1-1.1V86.5a1.11,1.11,0,0,1,1.1-1.1h45.5a1.11,1.11,0,0,1,1.1,1.1v2.6A1.11,1.11,0,0,1,114.9,90.2ZM69.4,86.1a.43.43,0,0,0-.4.4v2.6a.43.43,0,0,0,.4.4h45.5a.43.43,0,0,0,.4-.4V86.5a.43.43,0,0,0-.4-.4Z" transform="translate(-53.93 -53.6)"></path><path _ngcontent-awi-c20="" d="M114.9,77.5H69.4a.68.68,0,0,1-.7-.7V74.2a.68.68,0,0,1,.7-.7h45.5a.68.68,0,0,1,.7.7v2.6a.68.68,0,0,1-.7.7" transform="translate(-53.93 -53.6)"></path><path _ngcontent-awi-c20="" d="M114.9,77.9H69.4a1.11,1.11,0,0,1-1.1-1.1V74.2a1.11,1.11,0,0,1,1.1-1.1h45.5a1.11,1.11,0,0,1,1.1,1.1v2.6A1.11,1.11,0,0,1,114.9,77.9ZM69.4,73.8a.43.43,0,0,0-.4.4v2.6a.43.43,0,0,0,.4.4h45.5a.43.43,0,0,0,.4-.4V74.2a.43.43,0,0,0-.4-.4Z" transform="translate(-53.93 -53.6)"></path><path _ngcontent-awi-c20="" d="M89.2,102.4H69.4a.68.68,0,0,1-.7-.7V99.1a.68.68,0,0,1,.7-.7H89.2a.68.68,0,0,1,.7.7v2.6c.1.4-.3.7-.7.7" transform="translate(-53.93 -53.6)"></path><path _ngcontent-awi-c20="" d="M89.2,102.8H69.4a1.11,1.11,0,0,1-1.1-1.1V99.1A1.11,1.11,0,0,1,69.4,98H89.2a1.11,1.11,0,0,1,1.1,1.1v2.6A1.11,1.11,0,0,1,89.2,102.8ZM69.4,98.7a.43.43,0,0,0-.4.4v2.6a.43.43,0,0,0,.4.4H89.2a.43.43,0,0,0,.4-.4V99.1a.43.43,0,0,0-.4-.4Z" transform="translate(-53.93 -53.6)"></path><!----><!----><!----><!----></svg>