<svg _ngcontent-awi-c145="" version="1.0" xmlns="http://www.w3.org/2000/svg" height="100%" width="100%" viewBox="0 0 100.9 103.3" preserveAspectRatio="xMidYMid meet" class="svgDynamic" fill="#ffffff"><path _ngcontent-awi-c145="" d="M96.7,0H35.8l-0.3,0c0,0-0.1,0-0.1,0l-0.2,0.1c-0.1,0-0.1,0.1-0.2,0.1l-0.1,0.1c0,0-0.1,0.1-0.1,0.1 l-0.1,0.1c0,0-0.1,0.1-0.1,0.1l-0.1,0.1c0,0-0.1,0.1-0.1,0.1c0,0-0.1,0.1-0.1,0.1l0,0.1l-0.1,12h-30C1.9,13.2,0,15,0,17.3v81.8 c0,2.3,1.9,4.1,4.1,4.1h58.4c2.3,0,4.1-1.9,4.1-4.1v-9h30c2.3,0,4.1-1.9,4.1-4.1V4.1C100.9,1.9,99,0,96.7,0z M66.7,73.5h21.7 c0.9,0,1.7-0.7,1.7-1.7c0-0.9-0.7-1.7-1.7-1.7H66.7v-9.4h21.7c0.9,0,1.7-0.7,1.7-1.7c0-0.9-0.7-1.7-1.7-1.7H66.7v-9.4h21.7 c0.9,0,1.7-0.7,1.7-1.7c0-0.9-0.7-1.7-1.7-1.7H66.7v-9.4h21.7c0.9,0,1.7-0.7,1.7-1.7c0-0.9-0.7-1.7-1.7-1.7H66.7v-9.4h21.7 c0.9,0,1.7-0.7,1.7-1.7c0-0.9-0.7-1.7-1.7-1.7H66.7v-4.7l0-0.1c0-0.1,0-0.1,0-0.2l0-0.2c0-0.1,0-0.1-0.1-0.2l-0.3-0.5 c0,0-0.1-0.1-0.1-0.1L66,13.5c-0.1,0-0.1-0.1-0.1-0.1L43.5,3.3h53.2c0.5,0,0.8,0.4,0.8,0.8V86c0,0.5-0.4,0.8-0.8,0.8h-30V73.5z M37.5,13.2V4.2l19.9,8.9H37.5z M3.3,17.3c0-0.5,0.4-0.8,0.8-0.8h59.3v82.7c0,0.5-0.4,0.8-0.8,0.8H4.1c-0.5,0-0.8-0.4-0.8-0.8V17.3 z"></path><path _ngcontent-awi-c145="" d="M19.9,84.2c0.2,0.2,0.4,0.3,0.7,0.3c0.3,0,0.5-0.1,0.7-0.3c0.2-0.2,0.3-0.5,0.3-0.9v-8.1 c0-0.4-0.1-0.7-0.3-0.9c-0.2-0.2-0.5-0.2-0.9-0.2h-0.6c-0.4,0-0.7,0-0.8,0.1c-0.2,0.1-0.3,0.2-0.4,0.4c-0.1,0.2-0.2,0.5-0.3,0.9 l-1.5,5.6l-1.5-5.6c-0.1-0.4-0.2-0.7-0.3-0.9c-0.1-0.2-0.2-0.3-0.4-0.4c-0.2-0.1-0.5-0.1-0.8-0.1h-0.6c-0.4,0-0.7,0.1-0.9,0.2 c-0.2,0.2-0.3,0.5-0.3,0.9v8.1c0,0.4,0.1,0.7,0.3,0.9c0.2,0.2,0.4,0.3,0.7,0.3c0.3,0,0.5-0.1,0.7-0.3c0.2-0.2,0.3-0.5,0.3-0.9 v-7.1l1.6,6.5c0.1,0.2,0.1,0.4,0.2,0.6c0.1,0.2,0.1,0.4,0.2,0.5c0.1,0.2,0.2,0.3,0.4,0.4c0.2,0.1,0.4,0.2,0.6,0.2 c0.3,0,0.6-0.1,0.8-0.2c0.2-0.2,0.3-0.3,0.4-0.5c0.1-0.2,0.2-0.5,0.3-0.9l1.6-6.5v7.1C19.6,83.8,19.7,84.1,19.9,84.2z"></path><path _ngcontent-awi-c145="" d="M31.1,75.7c0.3,0,0.6-0.1,0.7-0.2c0.2-0.1,0.2-0.3,0.2-0.6c0-0.2-0.1-0.4-0.2-0.6 c-0.2-0.1-0.4-0.2-0.7-0.2h-5.5c-0.3,0-0.5,0-0.7,0.1c-0.2,0.1-0.3,0.2-0.4,0.4c-0.1,0.2-0.1,0.4-0.1,0.7v7.7c0,0.4,0.1,0.8,0.3,1 c0.2,0.2,0.5,0.3,1,0.3h5.6c0.3,0,0.6-0.1,0.7-0.2c0.2-0.2,0.2-0.3,0.2-0.6c0-0.3-0.1-0.5-0.2-0.6c-0.2-0.2-0.4-0.2-0.7-0.2h-4.8 v-2.9h4.3c0.3,0,0.6-0.1,0.7-0.2c0.2-0.1,0.2-0.3,0.2-0.6c0-0.2-0.1-0.4-0.2-0.6c-0.2-0.1-0.4-0.2-0.7-0.2h-4.3v-2.5H31.1z"></path><path _ngcontent-awi-c145="" d="M36.3,84.2c0.2-0.2,0.3-0.5,0.3-0.9v-6l3.9,6c0.1,0.2,0.2,0.3,0.3,0.5c0.1,0.2,0.2,0.3,0.4,0.4 c0.1,0.1,0.3,0.2,0.4,0.3c0.1,0.1,0.3,0.1,0.5,0.1c0.7,0,1.1-0.4,1.1-1.3v-8c0-0.4-0.1-0.7-0.3-0.9c-0.2-0.2-0.4-0.3-0.7-0.3 c-0.3,0-0.5,0.1-0.7,0.3c-0.2,0.2-0.3,0.5-0.3,0.9v6.1l-4-6c-0.1-0.2-0.2-0.3-0.3-0.5c-0.1-0.2-0.2-0.3-0.3-0.4 c-0.1-0.1-0.2-0.2-0.3-0.2C36.2,74,36,74,35.8,74c-0.2,0-0.5,0.1-0.7,0.2c-0.2,0.1-0.4,0.3-0.4,0.5c-0.1,0.2-0.1,0.5-0.1,0.8v7.9 c0,0.4,0.1,0.7,0.3,0.9c0.2,0.2,0.4,0.3,0.7,0.3C35.8,84.5,36.1,84.4,36.3,84.2z"></path><path _ngcontent-awi-c145="" d="M47.9,74.3c-0.2-0.2-0.4-0.3-0.8-0.3c-0.3,0-0.6,0.1-0.7,0.3c-0.2,0.2-0.3,0.5-0.3,0.9v4.9 c0,0.8,0.1,1.4,0.3,2c0.2,0.6,0.4,1,0.8,1.4c0.4,0.4,0.8,0.6,1.4,0.8c0.6,0.2,1.2,0.3,2,0.3c0.7,0,1.2-0.1,1.7-0.2 c0.5-0.2,0.9-0.4,1.3-0.8c0.4-0.4,0.7-0.9,0.9-1.4c0.2-0.5,0.2-1.2,0.2-2v-4.9c0-0.4-0.1-0.7-0.3-0.9C54.2,74.1,54,74,53.7,74 c-0.3,0-0.6,0.1-0.7,0.3c-0.2,0.2-0.3,0.5-0.3,0.9v5.1c0,0.9-0.2,1.5-0.5,2c-0.3,0.4-0.9,0.6-1.7,0.6c-0.6,0-1-0.1-1.4-0.3 c-0.3-0.2-0.6-0.5-0.7-0.9c-0.1-0.4-0.2-0.9-0.2-1.4v-5C48.2,74.8,48.1,74.5,47.9,74.3z"></path><path _ngcontent-awi-c145="" d="M54.7,88.2H11.6c-0.5,0-0.9,0.4-0.9,0.9s0.4,0.9,0.9,0.9h43.1c0.5,0,0.9-0.4,0.9-0.9S55.2,88.2,54.7,88.2 z"></path><path _ngcontent-awi-c145="" d="M44.6,35.5L44.6,35.5c-0.3-0.3-0.5-0.5-0.9-0.8c-3-2.5-6.5-3.8-10.6-3.8h-0.1c-4,0-7.6,1.3-10.6,3.9 l-0.1,0.1c-0.2,0.2-0.5,0.4-0.7,0.6c-3.2,3.1-4.8,6.8-4.8,11.1v15.7c0,0.1,0,1.4,0,1.9c0,0.9,0.6,1.4,1.1,1.6 c0.3,0.1,0.6,0.1,0.9,0.1h28.1c1.3,0,2.2-0.7,2.2-1.8V46.6C49.4,42.3,47.8,38.6,44.6,35.5z M23.1,36.9c0.2-0.2,0.4-0.4,0.6-0.5 l0.1-0.1c2.7-2.3,5.7-3.4,9.3-3.4h0.1c3.5,0,6.7,1.1,9.4,3.4c0.2,0.2,0.5,0.4,0.7,0.6c1.7,1.6,2.8,3.4,3.5,5.5 c-2.8-1-8.1-1.5-13.9,2.6c-7,4.8-13-2.4-13.2-2.7l-0.1,0C20.2,40.3,21.4,38.5,23.1,36.9z M25.2,63.9H23c0.1-0.6,0.3-1.3,0.7-2 c0.3-0.6,0.6-1.1,1-1.6c1.3-1.6,2.9-2.6,4.9-3.1C27,58.9,25.6,61.2,25.2,63.9z M47.5,63.9c-0.1,0-0.2,0-0.3,0h-0.8 c-0.3-2.4-1.3-4.7-2.9-6.5c-2.3-2.7-5.7-4.5-9.5-4.7v-1.4h1.7c0-1.5-0.8-1.6-1.3-1.7c-0.7,0-2.1-0.1-2.8,0 c-0.5,0.1-0.9,0.5-0.9,1.6h1.7c0,0,0,0.9,0,1.4h0c0,0,0,0,0,0c-3.8,0.2-7.2,2.1-9.5,4.8c-1.5,1.8-2.5,4-2.8,6.5h-1c0,0-0.1,0-0.1,0 c0-0.5,0-1.6,0-1.7V46.6c0-0.8,0.1-1.5,0.2-2.2c1.5,1.5,4.8,4.1,8.9,4.1c1.9,0,3.9-0.5,6-2c6.9-4.8,12.4-2.5,13.4-1.8 c0.1,0.6,0.1,1.3,0.1,1.9V63.9z"></path></svg>