<?xml version="1.0" standalone="no"?>
<!DOCTYPE svg PUBLIC "-//W3C//DTD SVG 20010904//EN"
 "http://www.w3.org/TR/2001/REC-SVG-20010904/DTD/svg10.dtd">
<svg version="1.0" xmlns="http://www.w3.org/2000/svg"
 width="512.000000pt" height="512.000000pt" viewBox="0 0 512.000000 512.000000"
 preserveAspectRatio="xMidYMid meet">

<g transform="translate(0.000000,512.000000) scale(0.100000,-0.100000)"
fill="#c49b63" stroke="none">
<path d="M3110 4931 c-410 -103 -757 -191 -772 -194 -61 -16 -69 -107 -12
-138 24 -12 90 3 750 168 l724 180 0 -288 0 -289 -175 0 c-173 0 -176 0 -200
-25 -32 -31 -33 -74 -2 -103 23 -22 27 -22 390 -22 l367 0 0 -2035 0 -2035
-1180 0 -1181 0 -24 -25 c-14 -13 -25 -36 -25 -50 0 -14 11 -37 25 -50 l24
-25 1229 0 c1196 0 1230 1 1253 19 l24 19 3 2129 c1 1506 -1 2136 -9 2154 -17
42 -47 49 -214 49 l-155 0 0 350 0 351 -25 24 c-13 14 -34 25 -47 24 -13 0
-358 -85 -768 -188z"/>
<path d="M1450 4515 c-333 -84 -612 -156 -622 -159 -9 -4 -21 -19 -27 -34 -8
-20 -11 -621 -9 -2155 l3 -2129 24 -19 c22 -18 44 -19 388 -19 l364 0 24 25
c34 33 33 77 -1 104 -26 20 -38 21 -340 21 l-314 0 0 2035 0 2035 1130 0 1131
0 24 25 c14 13 25 31 25 39 0 28 -22 64 -47 75 -17 8 -271 11 -861 12 l-837 1
298 76 c174 45 306 84 317 94 30 27 27 81 -6 107 -15 12 -34 21 -43 20 -9 0
-288 -70 -621 -154z"/>
<path d="M3070 3363 c-204 -189 -334 -423 -315 -567 3 -27 13 -65 21 -85 l15
-35 -98 -98 c-54 -54 -102 -98 -108 -98 -6 0 -64 54 -129 119 l-119 120 16 52
c33 102 17 225 -45 349 -43 84 -162 206 -238 242 -153 73 -305 53 -418 -56
-182 -173 -124 -464 126 -630 133 -88 296 -119 402 -77 l45 18 127 -126 128
-126 -265 -265 c-176 -177 -265 -273 -265 -287 0 -38 38 -73 78 -73 34 0 52
16 297 260 l260 260 260 -260 c244 -244 262 -260 296 -260 44 0 70 26 71 70 1
29 -24 57 -261 294 l-261 261 104 104 104 104 43 -17 c160 -64 382 36 622 282
72 74 87 95 87 121 0 41 -31 71 -73 71 -27 0 -45 -12 -112 -81 -155 -157 -315
-259 -405 -259 l-44 0 217 218 c192 193 217 222 217 250 0 42 -30 72 -73 72
-29 0 -55 -23 -247 -215 -118 -118 -219 -215 -224 -215 -16 0 5 95 34 156 40
82 115 179 221 285 97 97 110 128 69 169 -39 39 -80 27 -160 -47z m-1073 -133
c64 -28 148 -118 186 -197 59 -127 46 -241 -34 -285 -44 -25 -144 -20 -214 11
-220 97 -309 323 -175 445 22 19 52 38 67 42 16 3 33 7 38 10 19 7 89 -7 132
-26z"/>
<path d="M1764 1318 c-22 -10 -44 -47 -44 -72 0 -7 9 -25 21 -40 l20 -26 795
0 795 0 24 25 c14 13 25 31 25 39 0 28 -22 64 -47 75 -32 15 -1558 14 -1589
-1z"/>
<path d="M2019 911 c-17 -13 -23 -29 -23 -56 0 -27 6 -43 23 -56 22 -18 50
-19 540 -19 561 0 551 -1 565 55 7 29 -15 79 -39 89 -9 3 -248 6 -530 6 -486
0 -514 -1 -536 -19z"/>
</g>
</svg>
