<svg _ngcontent-awi-c20="" version="1.0" xmlns="http://www.w3.org/2000/svg" height="100%" width="100%" preserveAspectRatio="xMidYMid meet" class="svgDynamic" viewBox="0 0 106 131.8" fill="#c49b63"><path _ngcontent-awi-c20="" d="M59.9,12.5c0.3,0.1,0.6,0.1,0.8,0.1c0.7,0,1.6-0.3,2.2-1.7l0.3-0.8c0.8-2,1.7-4,2.6-6 c0.7-1.6,0.5-2.9-0.7-3.9L65,0h-2.2l-0.2,0.3c-0.1,0.1-0.1,0.2-0.2,0.2C62.2,0.7,62,1,61.8,1.3l-0.4,1c-1,2.3-2,4.6-3,7 c-0.3,0.7-0.3,1.4,0,2C58.7,11.8,59.2,12.2,59.9,12.5z" transform=""></path><path _ngcontent-awi-c20="" d="M105.2,122.4l-0.2,0.2l0,0L105.2,122.4c-0.7-0.6-1.9-0.7-2.7-0.5c-2.1,0.4-4.2,0.9-6.3,1.4l-1.7,0.4 l-0.9-3.4c-2.3-9.5-4.8-19.3-7.1-28.9c0-0.1,0.1-0.3,0.4-0.6c0.4-0.4,0.9-0.9,1.3-1.2c0.8-0.8,1.7-1.5,2.4-2.5 c3.1-4.4,3.8-9.5,4.2-14.5c0.7-8.3-0.3-16.8-2.9-25.3c-1.8-6.1-3.9-12.3-5.9-18.3l-1.3-3.9c-0.7-2.2-2-2.3-3.7-1.9 c-8.6,2.1-17.2,4.2-25.8,6.3c-2,0.5-2.8,1.1-2.5,3.4c0.6,4.8,1.2,9.5,2,14.2c1.3,7.4,2.7,14.5,5.3,21.4c3,7.9,6.3,13.4,10.5,17.9 c2.5,2.6,5.9,5.6,10.9,5.9c0.3,0,0.3,0,0.4,0.5l0,0.2c2.1,8.5,4.2,17.1,6.3,25.6c0.4,1.5,0.7,3.1,1.1,4.7l0.4,1.6c0,0-0.1,0-0.1,0 c-0.8,0.2-1.5,0.3-2.3,0.5c-1.9,0.4-3.9,0.9-5.9,1.4c-0.8,0.2-1.7,1-2.1,1.8c-0.3,0.8,0.2,2.1,0.9,2.5c0.4,0.3,1.1,0.5,1.8,0.5 c0.3,0,0.6,0,0.8-0.1c2.8-0.6,5.6-1.4,8.3-2.1l5.4-1.4c2.4-0.6,4.7-1.2,7.1-1.8c1.1-0.3,2-1,2.2-2 C106.1,123.7,105.9,123,105.2,122.4z M88,81.8c-0.4,1.1-1,2.1-1.8,3.2c-1.9,2.7-4.5,3.3-7.2,1.8c-2.1-1.2-4-2.7-5.5-4.4 c-4.2-4.6-7.3-10.5-9.6-17.8c-1.2-4.1-2.2-8.2-3.3-12.6c-0.4-1.7-0.8-3.3-1.2-5l25.7-6.1l0.7,2.4c1.9,6.4,3.5,12.2,4.1,18.3 C90.4,67.6,90.7,74.9,88,81.8z M83.7,36.2l-25,5.8l-1.1-8L76,29.4c0.5-0.1,1-0.2,1.4-0.3c1-0.2,2.1-0.5,3.1-0.8 c0.1,0,0.2-0.1,0.2-0.1c0,0,0.1,0.2,0.1,0.3c0.7,2,1.4,4,2.2,6.1L83.7,36.2z" transform=""></path><path _ngcontent-awi-c20="" d="M50.5,7.2C42,5.1,33.6,3.1,25.1,1c-2.2-0.5-3.1-0.3-3.9,2c-4.6,12.3-8.9,24.4-10,37.5 c-0.6,7.4-0.1,13.4,1.6,18.8c1,3,2.5,6.7,6,9c0.6,0.4,0.7,0.6,0.5,1.3c-1.1,4.4-2.2,8.9-3.3,13.1l-1.3,5.4 c-0.8,3.2-1.6,6.5-2.4,9.8l-0.9,3.5c-0.2,0-0.3-0.1-0.4-0.1l-2.8-0.7c-1.7-0.4-3.5-0.9-5.2-1.3c-1.5-0.3-2.6,0.3-3,1.6 c-0.3,1.4,0.3,2.5,1.7,2.9l0.2,0.1c0.1,0,0.3,0.1,0.4,0.1l20.2,5.2c0.6,0.1,1.1,0.2,1.6,0.2c0.6,0,1.1-0.1,1.5-0.4 c0.5-0.3,0.8-0.8,1-1.5c0.3-1.5-0.6-2.6-2.8-3.1c-1.8-0.5-3.7-0.9-5.5-1.4l-1.9-0.5l8-32.5l0.3,0c0.5-0.1,1.1-0.1,1.6-0.2 c4.9-1.1,8.2-4.4,10.5-7.2c4.5-5.4,7.9-11.8,10.3-19.7c3-9.5,5-19.9,6.2-31.6C53.5,8.7,52.9,7.8,50.5,7.2z M46.4,24.6l-0.1,0.7 c-0.2,1-0.4,2-0.6,3.1c-1.5,7.7-3.7,16.7-8.3,24.9c-2.2,3.8-4.7,7.7-8.7,10.4c-2,1.4-3.8,1.8-5.5,1.4c-1.7-0.4-3.1-1.7-4.3-3.8 c-2.1-3.7-2.6-7.9-2.9-11c-0.9-10.4,1.6-20.5,4.1-29c0.2-0.7,0.4-1.5,0.7-2.2l0.1-0.5L46.4,24.6z M48.4,11.6l-1.1,8.2l-24.9-5.9 l2.8-7.9L48.4,11.6z" transform=""></path><path _ngcontent-awi-c20="" d="M63.3,15.1L63.3,15.1c-0.2,0.6-0.1,1.2,0.2,1.9c0.5,0.8,1.1,1.3,2,1.3c0.4,0,0.7-0.1,1.1-0.3l1.1-0.5 c2.1-1,4.3-2,6.5-3.1c0.5-0.3,0.9-0.8,1.1-1.1c0-0.1,0.1-0.1,0.1-0.1l0.2-0.2l0-0.3c0-1.1-0.4-2-1.1-2.4c-0.6-0.4-1.4-0.5-2.2-0.1 c-2.9,1.3-5.5,2.6-7.8,3.7C63.9,14.1,63.5,14.6,63.3,15.1z" transform=""></path><path _ngcontent-awi-c20="" d="M83.5,47.2c-0.5-0.3-1.1-0.4-1.7-0.2c-1.4,0.4-2,1.5-1.8,3.1c0.2,1.2,0.4,2.4,0.6,3.5l0,0.2 c0.5,2.9,1.1,6,1.4,9c0.4,4.3,0.7,9.4-0.7,14.4c-0.2,0.9-0.2,1.7,0.2,2.3c0.3,0.5,0.8,0.9,1.4,1.1c0.2,0.1,0.4,0.1,0.6,0.1 c1.1,0,2-0.8,2.4-2.1c1.1-3.4,1.2-6.8,1.2-9.3l0-0.8c-0.2-7.1-1-13.1-2.5-19.3C84.5,48.2,84.1,47.6,83.5,47.2z" transform=""></path><path _ngcontent-awi-c20="" d="M18.9,46.7L18.9,46.7c0,0.8-0.1,1.7,0.1,2.5c0.3,2.3,0.7,4.8,1.2,7.3c0.1,0.7,0.5,1.2,1.1,1.6 c0.3,0.2,0.7,0.3,1.1,0.3c0.3,0,0.6-0.1,0.9-0.2c1.3-0.5,1.9-1.6,1.6-2.9c-1.2-4.1-1.5-8.5-0.8-14.3c0.4-3.3,0.9-6.7,1.5-9.9 c0.2-1.1,0.4-2.2,0.6-3.3c0.3-2.1-0.9-2.8-1.7-3c-0.6-0.2-1.2-0.1-1.8,0.2c-0.6,0.4-1.1,1-1.3,1.9c-1.7,7.5-2.4,13.4-2.4,18.9 C18.9,46,18.9,46.3,18.9,46.7z" transform=""></path><!----><!----><!----><!----></svg>