<svg _ngcontent-awi-c20="" version="1.0" xmlns="http://www.w3.org/2000/svg" height="100%" width="100%" preserveAspectRatio="xMidYMid meet" class="svgDynamic" viewBox="0 0 87.1 87.1" fill="#ffffff"><path _ngcontent-awi-c20="" d="M122.7,143.6H77.3a22.06,22.06,0,0,1-8.1-1.6,21.49,21.49,0,0,1-11.1-11.1,20.54,20.54,0,0,1-1.6-8.1V77.3a22.06,22.06,0,0,1,1.6-8.1A21.49,21.49,0,0,1,69.2,58.1a20.54,20.54,0,0,1,8.1-1.6h45.5a22.06,22.06,0,0,1,8.1,1.6A21.49,21.49,0,0,1,142,69.2a20.54,20.54,0,0,1,1.6,8.1v45.5a22.06,22.06,0,0,1-1.6,8.1A21.49,21.49,0,0,1,130.9,142,23,23,0,0,1,122.7,143.6ZM77.3,60.9A16.3,16.3,0,0,0,61,77.2v45.5A16.3,16.3,0,0,0,77.3,139h45.5a16.3,16.3,0,0,0,16.3-16.3V77.3A16.3,16.3,0,0,0,122.8,61H77.3Z" transform="translate(-56.5 -56.5)"></path><path _ngcontent-awi-c20="" d="M100,121.7a21.73,21.73,0,0,1-8.4-1.7,23.15,23.15,0,0,1-6.9-4.6,19.9,19.9,0,0,1-4.6-6.9,22.11,22.11,0,0,1-1.7-8.4,21.73,21.73,0,0,1,1.7-8.4,23.15,23.15,0,0,1,4.6-6.9,19.9,19.9,0,0,1,6.9-4.6,22.11,22.11,0,0,1,8.4-1.7,21.73,21.73,0,0,1,8.4,1.7,23.15,23.15,0,0,1,6.9,4.6,19.9,19.9,0,0,1,4.6,6.9,22.11,22.11,0,0,1,1.7,8.4,21.73,21.73,0,0,1-1.7,8.4,23.15,23.15,0,0,1-4.6,6.9,19.9,19.9,0,0,1-6.9,4.6A21.73,21.73,0,0,1,100,121.7Zm0-38.8A17.1,17.1,0,1,0,117.1,100,17.09,17.09,0,0,0,100,82.9Z" transform="translate(-56.5 -56.5)"></path><!----><circle _ngcontent-awi-c20="" cx="68.1" cy="18.5" r="5.1"></circle><!----><!----><!----></svg>