<svg _ngcontent-awi-c20="" version="1.0" xmlns="http://www.w3.org/2000/svg" height="100%" width="100%" preserveAspectRatio="xMidYMid meet" class="svgDynamic" viewBox="0 0 91.17 109.52" fill="#c49b63"><path _ngcontent-awi-c20="" d="M90.5,150.3c0-13.5.1-26.6-.1-39.6,0-1.2-1.1-2.5-1.9-3.4C77.9,96,67.2,84.7,56.6,73.4a10.08,10.08,0,0,1-1.7-1.9c-.9-1.8-.6-3.1,1.7-3.4a22.53,22.53,0,0,1,2.6,0c15,0,30-.1,44.9.1,2.7,0,4.5-.6,6-3.1,3.6-5.9,7.6-11.6,11.5-17.4,1.3-2,8.1-3.2,9.9-1.7a2.58,2.58,0,0,1,.7,2.2c-.2.6-1.3,1.6-1.7,1.4-5.2-1.2-6.7,2.8-8.9,6-2.6,4-5.3,7.9-8.3,12.5,5.2,0,9.6-.1,14.1.1a11.25,11.25,0,0,1,3.4,1.1c-.5,1.2-.7,2.6-1.5,3.5-10.7,11.5-21.6,22.9-32.2,34.5a8.58,8.58,0,0,0-2.1,5.3c-.2,11.4-.1,22.9-.1,34.3v3.5a58.43,58.43,0,0,1,7.3.1c1,.1,1.8,1.2,2.8,1.9-.9.8-1.8,2.3-2.7,2.3q-9.45.3-18.9,0c-1,0-1.9-1.4-2.9-2.2,1-.7,2-1.8,3.1-2A37.35,37.35,0,0,1,90.5,150.3Zm2.1-45c10.3-10.9,20.4-21.7,30.8-32.8H61.7C72.2,83.6,82.3,94.3,92.6,105.3Z" transform="translate(-54.43 -45.33)"></path><path _ngcontent-awi-c20="" d="M118.3,65.4a13.88,13.88,0,0,1,18.7-8,14.33,14.33,0,0,1,7.2,19.3c-3.7,7.6-12.5,10.1-20.3,5.8,1.1-2,2-3.6,5-2.6,4.5,1.6,9.4-.9,11.4-5.3a9.58,9.58,0,0,0-3.1-12c-3.8-2.9-9.3-2.8-12.5.8A6.2,6.2,0,0,1,118.3,65.4Z" transform="translate(-54.43 -45.33)"></path><!----><!----><!----><!----></svg>