<svg _ngcontent-awi-c20="" version="1.0" xmlns="http://www.w3.org/2000/svg" height="100%" width="100%" preserveAspectRatio="xMidYMid meet" class="svgDynamic" viewBox="0 0 54.48 106.6" fill="#ffffff"><path _ngcontent-awi-c20="" d="M84,69.2c.5-3.6,1-7.1,1.5-10.7.2-1.7-2.5-1.7-2.7,0-.4,3.3-.9,6.7-1.4,10C81.2,70.2,83.8,70.9,84,69.2Z" transform="translate(-72.75 -46.7)"></path><path _ngcontent-awi-c20="" d="M82.9,70.4a1.5,1.5,0,0,1-1.1-.4,1.66,1.66,0,0,1-.6-1.6c.5-3.4,1-6.8,1.4-10a1.72,1.72,0,0,1,2-1.5,1.3,1.3,0,0,1,1.2,1.5c-.5,3.6-1,7.2-1.5,10.7h0a1.55,1.55,0,0,1-.8,1.1A.73.73,0,0,1,82.9,70.4Zm1.5-12.9a1.27,1.27,0,0,0-1.3,1.1c-.4,3.2-.9,6.6-1.4,10a1.14,1.14,0,0,0,.4,1.1,1.06,1.06,0,0,0,1.2.2c.3-.1.4-.3.5-.7h0c.5-3.5,1-7.1,1.5-10.7a.8.8,0,0,0-.7-1Z" transform="translate(-72.75 -46.7)"></path><path _ngcontent-awi-c20="" d="M85,54.9a1.35,1.35,0,0,0,0-2.7A1.35,1.35,0,0,0,85,54.9Z" transform="translate(-72.75 -46.7)"></path><path _ngcontent-awi-c20="" d="M85,55.1a1.63,1.63,0,0,1-1.1-2.7,1.69,1.69,0,0,1,2.4,0,2.1,2.1,0,0,1,.4,1.1A1.82,1.82,0,0,1,85,55.1Zm0-2.7a1,1,0,0,0-1,1.1,1,1,0,0,0,1.1,1.1,1,1,0,0,0,1-1.1A1,1,0,0,0,85,52.4Z" transform="translate(-72.75 -46.7)"></path><path _ngcontent-awi-c20="" d="M103.9,138.2c.1-8,.2-16,0-24h0c31.2-3,24.1-45.2,16.5-66.2a1.1,1.1,0,0,0-1.3-1c-12.6.8-25.3.6-38,.2h-.2a.76.76,0,0,0-.4.1h0a1.08,1.08,0,0,0-.8.9c-3,14.7-8.9,31.5-5.1,46.5A26.26,26.26,0,0,0,96,114v.2c.2,8.1.1,16.1,0,24.2-4.3.1-24.1,0-23,8,.8,6.3,17.9,6.2,22.2,6.5a92.88,92.88,0,0,0,20.4-1.2c2.7-.5,10.3-1.7,11.2-5.2C128.8,138.7,108.7,138.3,103.9,138.2ZM82.2,49.8c12,.4,24,.6,35.9-.1A108.16,108.16,0,0,1,124,77a.6.6,0,0,0-.4.1c-9.9,4.6-17.5,3.7-27.8,1.7a39,39,0,0,0-19.2,1.3C77.3,69.9,80.1,59.8,82.2,49.8ZM76.4,87.1c-.1-1.4,0-2.8,0-4.2a39.6,39.6,0,0,1,14.9-2.1c4.3.4,8.4,1.9,12.7,2.5,7.2,1.1,13.7-.6,20.2-3.6.7,16.2-4,31.1-22.4,31.9C87.1,112.3,77,101.3,76.4,87.1Zm42.1,61.3c-7.2,2.2-15.8,2.2-23.3,1.8-4.8-.3-12.6-.1-16.9-2.6-4.5-2.7,1.6-4.5,4.4-5.2A60,60,0,0,1,96,141.1v3a1.35,1.35,0,0,0,2.7,0c.2-9.9.3-19.9.1-29.8a19.27,19.27,0,0,0,2.4.1c.2,9.9.2,19.8-.1,29.7a1.35,1.35,0,0,0,2.7,0v-3.2a67,67,0,0,1,13.4,1.4c1.1.3,4.5.7,5.2,1.7C124.6,147,120.3,147.9,118.5,148.4Z" transform="translate(-72.75 -46.7)"></path><path _ngcontent-awi-c20="" d="M100,153.3c-1.6,0-3.2,0-4.8-.1a9.74,9.74,0,0,1-1.6-.1c-6-.2-20-.8-20.8-6.6a4.15,4.15,0,0,1,1.1-3.5c4-4.6,17.4-4.7,21.8-4.8h.2c.1-8.9.1-16.7,0-24h0c-10.6-1.9-18.8-9.3-21.3-19.5-3.1-12,0-24.9,3-37.3q1.2-4.8,2.1-9.3a1.44,1.44,0,0,1,.9-1.1c.1,0,.3-.1.4-.1h.2a359.91,359.91,0,0,0,37.9-.2,1.36,1.36,0,0,1,1.5,1.2A118.46,118.46,0,0,1,126.9,76c1,11.9-.6,21.3-4.8,27.9q-5.85,9.15-18,10.5c.1,7.1.2,14.9,0,23.6,12.2.2,19.9,2,22.3,5.1a4,4,0,0,1,.7,3.5c-.9,3.7-8.8,5-11.4,5.4A105,105,0,0,1,100,153.3ZM81.1,47.4h-.5a.75.75,0,0,0-.6.7q-.9,4.5-2.1,9.3c-2.9,12.4-6,25.2-3,37.1a25.84,25.84,0,0,0,21.2,19.1h.2v.4c.2,7.3.2,15.2,0,24.2v.2h-.7c-11.7.1-18.9,1.7-21.4,4.6a4,4,0,0,0-1,3.1c.7,5.5,14.5,6,20.3,6.2a7.59,7.59,0,0,1,1.6.1,88.72,88.72,0,0,0,20.4-1.2c2.5-.4,10.1-1.7,11-5a3.25,3.25,0,0,0-.6-3c-1.6-2.1-6.8-4.7-22.2-4.9h-.2v-.2c.1-8.9.1-16.8,0-24v-.2h.2c8-.8,14-4.2,17.8-10.3,4.1-6.5,5.7-15.8,4.7-27.5A110.35,110.35,0,0,0,119.9,48c-.1-.3-.2-.9-1-.9A330,330,0,0,1,81.1,47.4Zm21,103.3c-2.5,0-4.8-.1-6.9-.2-.8,0-1.7-.1-2.6-.1-4.8-.2-10.8-.4-14.4-2.5-1.3-.7-1.8-1.5-1.7-2.3.3-1.7,4-2.8,6.2-3.4a60.48,60.48,0,0,1,13.4-1.3h.3v3.3a.94.94,0,0,0,1,1h0a1,1,0,0,0,1.1-1.1c.2-10,.3-20,.1-29.8V114h.3a19.27,19.27,0,0,0,2.4.1h.2v.2c.2,9.7.2,19.8-.1,29.8a.94.94,0,0,0,1,1,1.17,1.17,0,0,0,1.2-1v-3.4h.2a68.79,68.79,0,0,1,13.5,1.4,3.09,3.09,0,0,1,.8.2c1.6.3,3.9.8,4.5,1.7a2.16,2.16,0,0,1,.5,2.2c-.5,1.4-2.6,2-4.1,2.4a1.09,1.09,0,0,1-.5.1h0A61.38,61.38,0,0,1,102.1,150.7Zm-6.3-9.4a70.52,70.52,0,0,0-13,1.3c-2.7.6-5.6,1.7-5.8,2.9q-.15.9,1.5,1.8c3.5,2.1,9.4,2.3,14.2,2.5.9,0,1.8.1,2.6.1,6.3.3,15.5.5,23.2-1.8h0c.2,0,.3-.1.5-.1,1.3-.4,3.3-.9,3.7-2.1a2,2,0,0,0-.5-1.8c-.5-.7-2.9-1.2-4.2-1.5-.3-.1-.6-.1-.8-.2a64.34,64.34,0,0,0-13.1-1.4v2.9a1.49,1.49,0,0,1-1.6,1.5h0a1.47,1.47,0,0,1-1.5-1.5c.2-9.9.3-19.8.1-29.5a12.1,12.1,0,0,1-1.9-.1c.2,9.7.2,19.6-.1,29.5a1.49,1.49,0,0,1-1.6,1.5h0a1.47,1.47,0,0,1-1.5-1.5v-1.6C95.8,142.1,95.8,141.7,95.8,141.3Zm4.9-29.4c-13.7,0-23.9-10.3-24.5-24.8h0a29.2,29.2,0,0,1,0-4.2v-.2l.2-.1c5.8-1.8,10.6-2.5,15-2.1a44.81,44.81,0,0,1,7.3,1.4c1.8.4,3.6.9,5.4,1.2,6.3,1,12.5-.1,20-3.6l.3-.2v.4c.6,14.2-2.9,31.3-22.6,32.1A3.75,3.75,0,0,1,100.7,111.9Zm-24-28.8v4c.6,14.3,10.6,24.3,24,24.3h1.1c19.2-.8,22.6-17.3,22.1-31.3-7.5,3.4-13.7,4.4-20,3.5a47.06,47.06,0,0,1-5.4-1.2A45.74,45.74,0,0,0,91.3,81C87,80.7,82.4,81.4,76.7,83.1ZM109,80.7A65.5,65.5,0,0,1,95.7,79c-6-1.2-12.1-.8-19.1,1.2l-.3.1v-.4c.5-7.7,2.3-15.5,4-22.9.5-2.4,1.1-4.9,1.6-7.3v-.2h.2c14,.5,25.4.5,35.9-.1h.2l.1.2a115.85,115.85,0,0,1,6,27.4v.2h-.2a.6.6,0,0,0-.4.1A33.31,33.31,0,0,1,109,80.7ZM89,77.9a32.32,32.32,0,0,1,6.9.7c9.9,2,17.7,3,27.6-1.7.1,0,.2-.1.3-.1A112.41,112.41,0,0,0,118,49.9c-10.4.6-21.7.6-35.6.1-.5,2.4-1,4.8-1.6,7.1-1.7,7.3-3.4,14.9-3.9,22.5A48.29,48.29,0,0,1,89,77.9Z" transform="translate(-72.75 -46.7)"></path><!----><!----><!----><!----></svg>